<svg width="522" height="353" viewBox="0 0 522 353" fill="none" xmlns="http://www.w3.org/2000/svg">
<path d="M324.7 103.5C292.3 73.1 254.3 65.3 244.3 63.7C251.1 45.5 261.5 18.4 264.1 14.4C264.9 14.3 266.6 14.1 269.2 14.1C276.6 14.1 292.3 15.6 315.2 25.9C348.2 40.7 357 57.4 358.7 61.5L324.7 103.5Z" fill="white"/>
<path d="M269.1 16.1C276.3 16.1 291.8 17.6 314.2 27.7C344 41.1 353.6 56.1 356.2 61.2L324.4 100.6C305.2 83.2 284.6 73.5 270.3 68.5C260.2 64.9 252 63 247 62.1C254.5 42 262.6 21.4 265.3 16.2C266.2 16.2 267.5 16.1 269.1 16.1ZM269.1 12.1C265.1 12.1 263 12.5 263 12.5C260.7 13.3 241.5 65.3 241.5 65.3C241.5 65.3 287.1 69.9 324.8 106.4L360.8 61.8C360.8 61.8 354.8 41.5 315.8 24C293.1 13.8 277.2 12.1 269.1 12.1Z" fill="#A0C6F4"/>
<path d="M248.2 69.4C248.2 69.4 293 73.9 320.6 99.3" stroke="#2A1E17" stroke-miterlimit="10" stroke-linecap="round" stroke-linejoin="round"/>
<path d="M286.9 67.2L303.6 34.7L320.8 68.6L286.9 67.2Z" fill="#A0C6F4"/>
<path d="M290.2 66.7L306.9 34.2L324 68.1L290.2 66.7Z" stroke="#2A1E17" stroke-miterlimit="10" stroke-linecap="round" stroke-linejoin="round"/>
<path d="M274.5 10.1C274.5 10.1 324.7 14.6 356 51.7" stroke="#2A1E17" stroke-miterlimit="10" stroke-linecap="round" stroke-linejoin="round"/>
<path d="M300.1 154.1C297.3 152.1 295.5 150.7 295.5 150.7C296.3 149.7 308.4 136.8 315.4 126.4C315.4 126.5 301.3 155 300.1 154.1Z" fill="#2A1E17"/>
<path d="M128.8 60.3C130.1 62.5 130.7 61.6 134.6 61.3C138.5 61 144 63.8 146 68.6C148 73.4 147.3 74.1 146.3 74.7C145.3 75.3 137.8 76.2 137.5 77.7" stroke="#2A1E17" stroke-miterlimit="10" stroke-linecap="round" stroke-linejoin="round"/>
<path d="M229.6 303.7L226.1 297.8L213.8 318.4L217 320.9L229.6 303.7Z" fill="#F9865F"/>
<path d="M147.5 252.6C147.5 252.6 141.1 242.2 143.8 237.1L164.2 239.3L147.5 252.6Z" fill="#F9865F"/>
<path d="M147.5 252.6L148.7 255.4L144.9 270.1C144.4 272 145 273.9 146.5 275.2L165.2 247.6C167 245 166.6 241.4 164.3 239.3L160.1 235.4L147.5 252.6Z" fill="black"/>
<path d="M137.5 77.8C143.4 77.7 150.8 77.3 149.3 72.8C147.8 68.3 142.3 57.2 129.6 60.6C129.6 60.6 125.1 64.3 130.7 71C136.3 77.6 137.5 77.8 137.5 77.8Z" fill="#2A1E33"/>
<path d="M167.1 239.5C167.1 239.5 157.1 210 165.6 197C172.6 186.3 195.4 203.7 198.5 206L214.8 176.5C214.8 176.5 211 171.2 201.8 166.1C192.6 161 154.4 145.5 136.4 173.8C129.8 184.3 129.7 229.2 142.4 246.4L167.1 239.5Z" fill="#7595EC"/>
<path d="M167.1 239.5C167.1 239.5 157.1 210 165.6 197C172.6 186.3 195.4 203.7 198.5 206" stroke="#2A1E17" stroke-miterlimit="10" stroke-linecap="round" stroke-linejoin="round"/>
<path d="M214.8 176.7C207.4 184.5 185.4 222.5 180.4 240.7C173.8 265 176.3 285.2 212.6 324.7L230.2 299.1C230.2 299.1 217.8 280.3 220.1 262.6C223.4 237 241.6 212.2 250.9 196.5L214.8 176.7Z" fill="#7595EC"/>
<path d="M217.6 180L246.8 202.9L255.6 189.6L217.6 180Z" fill="#2A1E17"/>
<path d="M385.5 155.8C390.1 156.8 393.5 158.5 395.9 161C398.3 163.5 397.2 164.8 396.3 165.6C395.4 166.4 392.1 165.5 389.1 162.9C386.1 160.3 385.5 155.8 385.5 155.8Z" fill="#FF8A66"/>
<path d="M295.6 150.7C296.4 149.7 308.5 136.8 315.5 126.4C315.5 126.4 336.7 150.1 338.9 150.9C339.8 151.2 344.9 151.1 351.4 151C362.3 150.9 376.8 150.8 380 152.4C385.1 154.9 388.2 156.2 389.4 159.8C390.7 163.4 391.2 165.7 388.1 165.9C384.5 166.2 382.2 161.6 382.2 161.6C382.2 161.6 379.3 163.4 371.8 166.2C371.8 166.2 344.7 176.7 326.6 171.6C321.6 170.3 295.6 150.7 295.6 150.7Z" fill="#F9865F"/>
<path d="M131.2 56.1C128.9 57 127.5 58 128.8 60.3C130.1 62.5 130.7 61.6 134.6 61.3C138.5 61 144 63.8 146 68.6C148 73.4 147.3 74.1 146.3 74.7C145.3 75.3 137.8 76.2 137.5 77.7C137.2 79.2 140.5 83.6 147.4 83.3L149 83C149 83 163.5 97.1 165.6 99.2C167.7 101.3 183.1 111.7 191.6 113.8C198 115.4 211.1 113.3 218.9 111.8C222.7 111.1 225.3 110.4 225.3 110.4C225.3 110.4 219.4 99.8 218.2 83.5C218.2 83.5 204.1 85.8 194.8 87.8C194.8 87.8 173 75.6 162.3 70.2C162.3 70.2 153 58.8 148.7 57.3C144.4 56.1 134.4 54.9 131.2 56.1Z" fill="#F9865F"/>
<path d="M218.9 111.9C222.7 111.2 225.3 110.5 225.3 110.5C225.3 110.5 218.2 101.5 217 85.2C217 85.2 213.8 88.7 214.8 97.9C216.1 109.6 218.9 111.9 218.9 111.9Z" fill="#2A1E17"/>
<path d="M216.7 83.5C216.7 83.5 216.9 103.4 222.2 111.7L224.1 110.9C224.1 110.9 198.9 140.3 190.8 159.6C189.5 162.7 243 197 250.9 196.5C250.9 196.5 277 156.7 285.9 144.9L295.5 152.3C295.5 152.3 314.3 133.2 315.3 126.5C315.3 126.5 297.1 104.4 282.3 97.9C267.4 91.4 254.1 80.3 238.2 80.6C224.4 80.9 216.7 83.5 216.7 83.5Z" fill="#FFF7C9"/>
<path d="M295.6 152.3L286 144.8L287.5 140.7L295.6 152.3Z" fill="#2A1E17"/>
<path d="M310.2 73.5C308.5 78.7 303.7 93.8 298.3 95.7C292.9 97.6 287.3 95.2 287.3 95.2L281.5 98.1C280.9 100 276.3 101.7 270.4 101.9C266.1 102.1 263.4 96.5 264.7 92.4C265.3 90.5 267.5 81.4 267.5 81.4C267.5 81.4 272.2 64.2 276.5 60.7C280.8 57.2 284.8 53.6 296.3 58.3C313.7 65.5 310.2 73.5 310.2 73.5Z" fill="#F9865F"/>
<path d="M275.4 74.2C274.6 77.4 271.3 83.8 269.1 82.7C266.9 81.5 266.1 78.6 267.7 72.9C269.3 67.2 270.5 54.4 274.9 52.1C279.3 49.8 281.2 52.5 281.2 52.5C281.2 52.5 279.3 43.1 284.9 41.9C284.9 41.9 286.8 41 286.1 47.4C286.1 47.4 288.3 41.5 295.3 42.3C302.3 43.1 304.8 52.9 304.8 52.9C304.8 52.9 305.3 50.2 308.5 50.2C311.7 50.2 316.6 54.9 315.4 60.2C315.4 60.2 323.6 57.6 328 64.2C332.4 70.7 331.8 77.9 321.3 80.8C310.3 83.8 310.4 70.9 308.7 69.3C307 67.6 305.2 65.7 299.1 68C292.9 70.3 286.5 63.5 286.5 63.5C286.5 63.5 285.5 71.7 284.4 72.5C283.4 73.3 281.3 74.3 281.8 70.4C282.3 66.6 283 66.9 282.6 65.9C282.2 64.9 280.5 61.6 276.8 64.5C272.9 67.7 275.4 74.2 275.4 74.2Z" fill="#2A1E33"/>
<path d="M277.2 75.7C274.8 73.6 273.1 70 275.2 66.4C277.4 62.8 280.9 62.3 282 63.7C283.1 65.1 283.5 67.4 282.5 70.1" stroke="#2A1E33" stroke-miterlimit="10" stroke-linecap="round" stroke-linejoin="round"/>
<path d="M217 320.9L218.2 323.7L214.4 338.4C213.9 340.3 214.5 342.2 216 343.5L234.7 315.9C236.5 313.3 236.1 309.7 233.8 307.6L229.6 303.7L217 320.9Z" fill="black"/>
<path d="M281.2 52.6C281.2 52.6 279.8 47.9 275.5 46.7" stroke="#2A1E33" stroke-miterlimit="10" stroke-linecap="round" stroke-linejoin="round"/>
<path d="M190.3 158.2L242 85.9" stroke="#2A1E17" stroke-miterlimit="10" stroke-linecap="round" stroke-linejoin="round"/>
<path d="M263.4 90.9C261.5 93.3 260.7 103.8 269.3 104.4C277.9 105.1 283.4 101.3 283.4 101.3" stroke="#2A1E17" stroke-miterlimit="10" stroke-linecap="round" stroke-linejoin="round"/>
<path d="M148.7 57.6C148.7 57.6 154.6 65.4 155.5 68.2" stroke="#2A1E17" stroke-miterlimit="10" stroke-linecap="round" stroke-linejoin="round"/>
<path d="M370.4 162.6C370.4 162.6 374.4 165.9 382.2 161.6C385.1 160.1 383 156.5 379.4 157.4C375.8 158.3 371.5 156.9 371.5 156.9" stroke="#2A1E17" stroke-miterlimit="10" stroke-linecap="round" stroke-linejoin="round"/>
<path d="M386.9 156.3C386.9 156.3 390.7 160.7 390.6 163.4" stroke="#2A1E17" stroke-miterlimit="10" stroke-linecap="round" stroke-linejoin="round"/>
<path d="M331 155.8C331 155.8 334.4 151.2 338.8 150.9" stroke="#2A1E17" stroke-miterlimit="10" stroke-linecap="round" stroke-linejoin="round"/>
<path d="M186.4 95.4C186.4 95.4 188.4 89.2 194.8 88" stroke="#2A1E17" stroke-miterlimit="10" stroke-linecap="round" stroke-linejoin="round"/>
<path d="M203.8 190L196.1 204.6C196.1 204.6 170.9 247.3 179.4 274.9" stroke="#2A1E17" stroke-miterlimit="10" stroke-linecap="round" stroke-linejoin="round"/>
<path d="M226.1 239L250.9 196.4C250.9 196.4 283.5 149.2 286.8 142.5L298.3 121.2" stroke="#2A1E17" stroke-miterlimit="10" stroke-linecap="round" stroke-linejoin="round"/>
<path d="M193.7 162.7C193.7 162.7 237.9 194.9 251 196.5" stroke="#2A1E17" stroke-miterlimit="10" stroke-linecap="round" stroke-linejoin="round"/>
<path d="M216.7 83.5C216.7 83.5 216.7 103.7 222.1 112" stroke="#2A1E17" stroke-miterlimit="10" stroke-linecap="round" stroke-linejoin="round"/>
<path d="M314 123.3C312.6 131.6 294.2 149.1 294.2 149.1" stroke="#2A1E17" stroke-miterlimit="10" stroke-linecap="round" stroke-linejoin="round"/>
<path d="M176.4 227C177.836 227 179 225.836 179 224.4C179 222.964 177.836 221.8 176.4 221.8C174.964 221.8 173.8 222.964 173.8 224.4C173.8 225.836 174.964 227 176.4 227Z" fill="#2A1E17"/>
<path d="M422.5 280.7L421 270.7L429.6 276.4L425.1 277.3L422.5 280.7Z" stroke="#2A1E17" stroke-miterlimit="10" stroke-linecap="round" stroke-linejoin="round"/>
<path d="M138.7 109.5C122.5 95.2 95.7 130.9 193.7 244.4C250.3 309.9 294.7 315.8 300.7 293C311.5 252.1 272.5 241.8 287 257.8C308.1 281.1 368.1 286 412.8 264.3C456.9 242.9 429.8 209.6 427.1 207.6" stroke="#2A1E17" stroke-miterlimit="10" stroke-linecap="round" stroke-linejoin="round"/>
<path d="M413.6 266.6C415.036 266.6 416.2 265.436 416.2 264C416.2 262.564 415.036 261.4 413.6 261.4C412.164 261.4 411 262.564 411 264C411 265.436 412.164 266.6 413.6 266.6Z" fill="#2A1E17"/>
<path d="M375.5 285.4L453.2 241.6" stroke="#2A1E17" stroke-miterlimit="10" stroke-linecap="round" stroke-linejoin="round"/>
<path d="M140.4 114.2C141.836 114.2 143 113.036 143 111.6C143 110.164 141.836 109 140.4 109C138.964 109 137.8 110.164 137.8 111.6C137.8 113.036 138.964 114.2 140.4 114.2Z" fill="#2A1E17"/>
<path d="M207.2 63.1C210.293 63.1 212.8 60.5928 212.8 57.5C212.8 54.4072 210.293 51.9 207.2 51.9C204.107 51.9 201.6 54.4072 201.6 57.5C201.6 60.5928 204.107 63.1 207.2 63.1Z" fill="#FF6D66"/>
<path d="M105.1 14.5C103.7 14.5 102.6 15.6 102.6 17C102.6 18.4 103.7 19.5 105.1 19.5C106.5 19.5 107.6 18.4 107.6 17C107.6 15.6 106.5 14.5 105.1 14.5Z" fill="#A0C6F4"/>
<path d="M436.5 321.7C437.881 321.7 439 320.581 439 319.2C439 317.819 437.881 316.7 436.5 316.7C435.119 316.7 434 317.819 434 319.2C434 320.581 435.119 321.7 436.5 321.7Z" fill="#FAD8B0"/>
<path d="M392.3 207.6L365.7 195.1C363.6 194.1 363.6 191 365.8 190.1L415.3 168.3C416 168 416.8 168 417.5 168.3L451.5 182.9L392.3 207.6Z" fill="#2A1E33"/>
<path d="M390.7 166.5C390.8 177.5 392.3 207.5 392.3 207.5L451.4 182.8L450.1 141C450 138.4 447.4 136.8 445 137.8L394.1 161C392 162.1 390.7 164.2 390.7 166.5Z" fill="#C6CBCB"/>
<path d="M392.3 207.6L451.4 182.9L450.1 141.1C450.1 141.1 449.7 136.5 445 137.9" stroke="#2A1E17" stroke-miterlimit="10" stroke-linecap="round" stroke-linejoin="round"/>
<path d="M421 177.5L424.9 168.1" stroke="#2A1E17" stroke-miterlimit="10" stroke-linecap="round" stroke-linejoin="round"/>
<path d="M424.9 177.5L428.9 168.1" stroke="#2A1E17" stroke-miterlimit="10" stroke-linecap="round" stroke-linejoin="round"/>
<path d="M115.8 280.5C117.181 280.5 118.3 279.381 118.3 278C118.3 276.619 117.181 275.5 115.8 275.5C114.419 275.5 113.3 276.619 113.3 278C113.3 279.381 114.419 280.5 115.8 280.5Z" fill="#FF6D66"/>
<path d="M324.3 293.6C326.178 293.6 327.7 292.078 327.7 290.2C327.7 288.322 326.178 286.8 324.3 286.8C322.422 286.8 320.9 288.322 320.9 290.2C320.9 292.078 322.422 293.6 324.3 293.6Z" fill="#FF6D66"/>
<path d="M141.4 314.6C145.4 316.5 157.1 321.4 172.6 321.3C173.4 321.3 174.1 322 174 322.9L171.8 340C171.7 340.6 171.3 341.1 170.7 341.2C166.3 342 148.7 344.4 135.5 333.3C135.1 333 134.9 332.4 135.1 331.9L139.5 315.6C139.7 314.7 140.6 314.3 141.4 314.6Z" fill="#FFF7DC"/>
<path d="M143 319.7C143 319.7 150.6 330.4 153.3 331.9C156 333.4 170.7 324.7 170.7 324.7" stroke="#2A1E17" stroke-miterlimit="10" stroke-linecap="round" stroke-linejoin="round"/>
<path d="M160.5 330.4L168.5 338.7" stroke="#2A1E17" stroke-miterlimit="10" stroke-linecap="round" stroke-linejoin="round"/>
<path d="M149.4 328.8L140 331.4" stroke="#2A1E17" stroke-miterlimit="10" stroke-linecap="round" stroke-linejoin="round"/>
<path d="M386.6 112H377.7V120.9H386.6V112Z" fill="#FFE1C0"/>
<path d="M378.9 232.7L381.6 237.4L384.3 242H378.9H373.6L376.3 237.4L378.9 232.7Z" fill="#A0C6F4"/>
<path d="M163.9 28.7L164.6 7.79999C164.5 5.79999 165.3 5.19999 166.5 4.99999C172.2 3.69999 189.5 -0.100013 208.2 5.39999C210.6 6.09999 210.5 7.39999 210.5 8.59999L209.8 28.5C209.8 30 208.2 31 206.5 30.8C201 30 193.6 29.7 186 29.8C178.2 29.9 171.2 30.4 166.3 31.4C164.5 31.7 163.8 30.3 163.9 28.7Z" stroke="#2A1E17" stroke-miterlimit="10" stroke-linecap="round" stroke-linejoin="round"/>
<path d="M170.2 25.6L181.1 12.8L193.2 24.7C189.1 23.4 170.2 25.6 170.2 25.6Z" stroke="#2A1E17" stroke-miterlimit="10" stroke-linecap="round" stroke-linejoin="round"/>
<path d="M187.8 18.7L196.7 11.7L204.1 17L204.4 25.3L193.2 24.8" stroke="#2A1E17" stroke-miterlimit="10" stroke-linecap="round" stroke-linejoin="round"/>
<path d="M175.054 11.9015C175.154 10.9125 174.255 10.0116 173.047 9.88936C171.838 9.76713 170.777 10.4698 170.677 11.4589C170.577 12.4479 171.476 13.3488 172.685 13.471C173.893 13.5932 174.954 12.8905 175.054 11.9015Z" stroke="#2A1E17" stroke-miterlimit="10" stroke-linecap="round" stroke-linejoin="round"/>
<path d="M375.3 300.4L382.6 313.9C383.4 315.1 383.1 315.8 382.4 316.4C379.3 319.3 369.7 328.2 355.7 331.6C353.9 332 353.5 331.2 353.1 330.5L346.1 317.6C345.6 316.7 346.2 315.4 347.3 314.9C351.1 313.4 355.9 310.8 360.7 307.9C365.6 304.9 369.9 302 372.6 299.6C373.7 298.7 374.7 299.3 375.3 300.4Z" stroke="#2A1E17" stroke-miterlimit="10" stroke-linecap="round" stroke-linejoin="round"/>
<path d="M372.4 304.7L370.2 316.9L358.1 313.8C361.2 313.1 372.4 304.7 372.4 304.7Z" stroke="#2A1E17" stroke-miterlimit="10" stroke-linecap="round" stroke-linejoin="round"/>
<path d="M363.7 315.6L360.8 323.4L354.1 322.7L350.8 317.6L358.1 313.8" stroke="#2A1E17" stroke-miterlimit="10" stroke-linecap="round" stroke-linejoin="round"/>
<path d="M376.441 315.697C377.244 315.329 377.654 314.502 377.355 313.849C377.057 313.196 376.163 312.965 375.36 313.332C374.556 313.699 374.146 314.527 374.445 315.18C374.743 315.833 375.637 316.064 376.441 315.697Z" stroke="#2A1E17" stroke-miterlimit="10" stroke-linecap="round" stroke-linejoin="round"/>
<path d="M339.6 69.2L369.4 92C370.1 92.5 371 92.4 371.5 91.7L376 85.6C376.5 85 376.4 84.1 375.7 83.6L346.3 60.1C345.6 59.6 344.7 59.7 344.2 60.4L339.3 67.2C338.8 67.8 338.9 68.7 339.6 69.2Z" fill="white" stroke="#2A1E17" stroke-miterlimit="10" stroke-linecap="round" stroke-linejoin="round"/>
<path d="M341.8 68.2L349 73.2L353.3 68.2L346 62.1L341.8 68.2Z" fill="#FF6D66"/>
<path d="M351.7 75.2L359 81L362.8 76.2L355.6 70.3L351.7 75.2Z" fill="#FAD8B0"/>
<path d="M361.4 83.2L368.6 88.2L372.1 83.8L365.2 78.1L361.4 83.2Z" fill="#A0C6F4"/>
<path d="M399 37.3L405.8 94.4C405.9 95.7 407.1 96.5 408.3 96.4L419.8 94.8C421 94.6 421.9 93.6 421.7 92.3L416.2 35C416.1 33.7 414.9 32.8 413.6 33L400.9 34.9C399.7 35 398.9 36.1 399 37.3Z" fill="white" stroke="#2A1E17" stroke-miterlimit="10" stroke-linecap="round" stroke-linejoin="round"/>
<path d="M402.5 38.6L404.6 52L414.8 51.2L413.7 36.9L402.5 38.6Z" fill="#FF6D66"/>
<path d="M405.4 57.1L406.8 71.2L416.2 70.3L414.9 56L405.4 57.1Z" fill="#91BA83"/>
<path d="M407 76.2L409.1 89.5L417.7 88.6L416.6 75L407 76.2Z" fill="#FAD8B0"/>
<path d="M384.2 49.5L403 104.8C403.3 105.7 404.4 106.2 405.3 105.9L417.1 101.7C418 101.4 418.5 100.4 418.2 99.5L400.5 43.7C400.2 42.7 399.1 42.2 398.2 42.6L385.3 47.4C384.4 47.5 383.9 48.5 384.2 49.5Z" fill="white" stroke="#2A1E17" stroke-miterlimit="10" stroke-linecap="round" stroke-linejoin="round"/>
<path d="M388 50.5L392.9 63.1L402.7 60.2L398.6 46.4L388 50.5Z" fill="#A0C6F4"/>
<path d="M394.7 67.9L399 81.4L408 78.6L403.8 64.9L394.7 67.9Z" fill="#F9865F"/>
<path d="M400.2 86.2L405.1 98.9L413.2 96.2L409.4 83L400.2 86.2Z" fill="#FAD8B0"/>
<path d="M242.5 143.1H147.6C144.6 143.1 142.1 140.6 142.1 137.6V124.8C142.1 121.8 144.6 119.3 147.6 119.3H242.5C245.5 119.3 248 121.8 248 124.8V137.6C248 140.6 245.5 143.1 242.5 143.1Z" fill="#7595EC"/>
<path d="M206.9 129.9H155.1C154.1 129.9 153.3 129.1 153.3 128.1C153.3 127.1 154.1 126.3 155.1 126.3H206.9C207.9 126.3 208.7 127.1 208.7 128.1C208.7 129.1 207.9 129.9 206.9 129.9Z" fill="white"/>
<path d="M153.9 134.6H241.9" stroke="#2A1E17" stroke-miterlimit="10" stroke-linecap="round" stroke-linejoin="round"/>
<path d="M110.4 76.1L108.9 74.5L103.9 79L105.4 80.6C106 81.3 107.1 81.3 107.8 80.7L110.3 78.5C110.9 77.9 111 76.8 110.4 76.1Z" fill="#91BA83"/>
<path d="M101.7 65.5L108.8 73.2C109.2 73.6 109.1 74.2 108.7 74.6L103.8 79.1C103.4 79.5 102.8 79.4 102.4 79L95.3001 71.3C94.9001 70.9 95 70.3 95.4 69.9L100.3 65.4C100.7 65.1 101.3 65.1 101.7 65.5Z" stroke="#2A1E17" stroke-miterlimit="10" stroke-linecap="round" stroke-linejoin="round"/>
<path d="M88.0001 106.4H79.1001V114.5H88.0001V106.4Z" fill="#FF6D66"/>
<path d="M79.1 101.2V106.4H73.8" stroke="#2A1E17" stroke-miterlimit="10" stroke-linecap="round" stroke-linejoin="round"/>
<path d="M380.3 14.9H371.4V23H380.3V14.9Z" fill="#FAD8B0"/>
<path d="M371.4 9.69999V14.9H366.1" stroke="#2A1E17" stroke-miterlimit="10" stroke-linecap="round" stroke-linejoin="round"/>
<path d="M131.3 65C39.3 26.9 -31.5 100.3 141.9 212.7C155.6 221.6 176.5 224.7 176.5 224.7" stroke="#2A1E17" stroke-miterlimit="10" stroke-linecap="round" stroke-linejoin="round"/>
<path d="M46.7 70.2C48.1359 70.2 49.3 69.0359 49.3 67.6C49.3 66.164 48.1359 65 46.7 65C45.264 65 44.1 66.164 44.1 67.6C44.1 69.0359 45.264 70.2 46.7 70.2Z" fill="#2A1E17"/>
<path d="M30 53.2L32.9 50.4L39.5 54.2L42.8 64.4L32.7 60.2L30 53.2Z" stroke="#2A1E17" stroke-miterlimit="10" stroke-linecap="round" stroke-linejoin="round"/>
<path d="M32.9 50.4L30 53.2L28.4 51.2L31.2 48.6L32.9 50.4Z" stroke="#2A1E17" stroke-miterlimit="10" stroke-linecap="round" stroke-linejoin="round"/>
<path d="M42.8001 64.4L36.2001 57.2" stroke="#2A1E17" stroke-miterlimit="10" stroke-linecap="round" stroke-linejoin="round"/>
<path d="M58.8001 248L65.9001 284.8C66.1001 285.6 66.8001 286.1 67.7001 286L75.1001 284.4C75.9001 284.2 76.4001 283.5 76.2001 282.7L69.8001 245.6C69.7001 244.8 68.9001 244.2 68.0001 244.4L59.8001 246.2C59.1001 246.5 58.6001 247.2 58.8001 248Z" fill="white" stroke="#2A1E17" stroke-miterlimit="10" stroke-linecap="round" stroke-linejoin="round"/>
<path d="M61.1001 248.7L63.1001 257.3L69.7001 256.3L68.3001 247L61.1001 248.7Z" fill="#FF6D66"/>
<path d="M63.8 260.6L65.4001 269.7L71.5 268.7L70 259.4L63.8 260.6Z" fill="#FAD8B0"/>
<path d="M65.8 272.9L67.8 281.5L73.3 280.5L72 271.7L65.8 272.9Z" fill="#A0C6F4"/>
<path d="M263.4 340.3L293.6 332.2L294.8 335.5L264.2 343.4L263.4 340.3Z" stroke="#2A1E17" stroke-miterlimit="10" stroke-linecap="round" stroke-linejoin="round"/>
<path d="M259.2 336.1L260.1 338.8" stroke="#2A1E17" stroke-miterlimit="10" stroke-linecap="round" stroke-linejoin="round"/>
<path d="M258.4 337.9L260.9 337" stroke="#2A1E17" stroke-miterlimit="10" stroke-linecap="round" stroke-linejoin="round"/>
<path d="M257.8 346.6L259.4 351.7" stroke="#2A1E17" stroke-miterlimit="10" stroke-linecap="round" stroke-linejoin="round"/>
<path d="M256.4 349.8L260.9 348.4" stroke="#2A1E17" stroke-miterlimit="10" stroke-linecap="round" stroke-linejoin="round"/>
<path d="M250.9 338L253 344.9" stroke="#2A1E17" stroke-miterlimit="10" stroke-linecap="round" stroke-linejoin="round"/>
<path d="M248.7 342.3L255.1 340.3" stroke="#2A1E17" stroke-miterlimit="10" stroke-linecap="round" stroke-linejoin="round"/>
<path d="M43.2 12.2L24.1 3.49999L24.8 1.29999L44.1 10.2L43.2 12.2Z" stroke="#2A1E17" stroke-width="0.6707" stroke-miterlimit="10" stroke-linecap="round" stroke-linejoin="round"/>
<path d="M43.6 16.1L44.3 14.3" stroke="#2A1E17" stroke-width="0.6707" stroke-miterlimit="10" stroke-linecap="round" stroke-linejoin="round"/>
<path d="M44.8 15.6L43.1 14.9" stroke="#2A1E17" stroke-width="0.6707" stroke-miterlimit="10" stroke-linecap="round" stroke-linejoin="round"/>
<path d="M48.8 11.3L50.1 7.89999" stroke="#2A1E17" stroke-width="0.6707" stroke-miterlimit="10" stroke-linecap="round" stroke-linejoin="round"/>
<path d="M50.9 10.2L47.9 8.99998" stroke="#2A1E17" stroke-width="0.6707" stroke-miterlimit="10" stroke-linecap="round" stroke-linejoin="round"/>
<path d="M48.7 18.7L50.5 14.2" stroke="#2A1E17" stroke-width="0.6707" stroke-miterlimit="10" stroke-linecap="round" stroke-linejoin="round"/>
<path d="M51.6 17.4L47.5 15.7" stroke="#2A1E17" stroke-width="0.6707" stroke-miterlimit="10" stroke-linecap="round" stroke-linejoin="round"/>
<path d="M114.6 173.6C101.1 163.9 87.9 148.8 93.7 133.3C93.7 133.3 103 127.1 117.7 134.8C132.4 142.5 132.4 142.5 132.4 142.5L114.6 173.6Z" fill="#FAD8B0"/>
<path d="M108.5 238.2C102.4 235.3 76.5 221.9 71.9 198.8C67.9 178.9 83.1 152.1 90.8 140.2C90.3 155.9 106.1 169.2 113.7 174.7C121.4 180.3 127.1 183 134.9 185.9L108.5 238.2Z" fill="white"/>
<path d="M89.6 145C91.3 155.5 99.2 166.3 112.8 176.1C120.1 181.4 125.6 184.1 132.8 186.9L107.8 236.3C100.2 232.5 77.6 219.6 73.4 198.6C69.9 181.1 81.8 157.9 89.6 145ZM93.7 133.3C93.7 133.3 65.1 172 70.5 199.1C75.9 226.2 109.2 240.1 109.2 240.1L137.1 185.1C128.4 181.9 122.7 179.3 114.6 173.5C101.1 163.9 87.9 148.8 93.7 133.3Z" fill="#FAD8B0"/>
<path d="M86.2001 155.8C86.2001 155.8 87.9001 171.4 103.4 179.7" stroke="#2A1E17" stroke-miterlimit="10" stroke-linecap="round" stroke-linejoin="round"/>
<path d="M111.7 185.3L127.3 193.6" stroke="#2A1E17" stroke-miterlimit="10" stroke-linecap="round" stroke-linejoin="round"/>
<path d="M88.4 178C88.4 178 93.4 189.1 109.5 196.3" stroke="#2A1E17" stroke-miterlimit="10" stroke-linecap="round" stroke-linejoin="round"/>
<path d="M75.6001 179.7C75.6001 179.7 76.2001 191.4 83.9001 195.3" stroke="#2A1E17" stroke-miterlimit="10" stroke-linecap="round" stroke-linejoin="round"/>
<path d="M93.4001 139.2C93.4001 139.2 92.0001 154.2 114.6 173.6" stroke="#2A1E17" stroke-miterlimit="10" stroke-linecap="round" stroke-linejoin="round"/>
<path d="M101.7 141.9C101.7 141.9 108.9 141.3 119.5 149.1" stroke="#2A1E17" stroke-miterlimit="10" stroke-linecap="round" stroke-linejoin="round"/>
<path d="M67.8 189.8C67.3 197.2 68.3 224.2 107.3 241.3" stroke="#2A1E17" stroke-miterlimit="10" stroke-linecap="round" stroke-linejoin="round"/>
<path d="M316.8 174.8L300.3 208C300.3 208 311.5 212.1 302.7 225C302.7 225 323.4 233.6 337 211.3C350.6 189 316.8 174.8 316.8 174.8Z" fill="#91BA83"/>
<path d="M278.9 276.1C270.5 276.1 261.7 272.7 252.6 265.9L283.5 214.6L301.9 226.2H302C302.2 226.3 306.3 227.9 312.1 227.9C316.8 227.9 322.6 226.8 328.3 222.8L305.7 261.5C305.7 261.7 296 276.1 278.9 276.1Z" fill="white"/>
<path d="M284.1 216.8L301.1 227.5L301.3 227.6L301.5 227.7C301.7 227.8 306 229.6 312.1 229.6C315.6 229.6 319.9 229 324.2 227.1L304.5 260.9C303.9 261.8 294.7 274.7 278.9 274.7C271.2 274.7 263 271.7 254.6 265.6L284.1 216.8ZM337 211.2C329.3 223.8 319.4 226.6 312.2 226.6C306.6 226.6 302.7 225 302.7 225L283.1 212.7L250.7 266.4C261.6 274.8 271 277.7 279 277.7C297.1 277.7 307.2 262.5 307.2 262.5L337 211.2Z" fill="#96BD89"/>
<path d="M300.3 207.9C300.3 207.9 312.6 212.3 302.7 224.9" stroke="#2A1E17" stroke-miterlimit="10" stroke-linecap="round" stroke-linejoin="round"/>
<path d="M282.7 211.4C282.7 211.4 299.5 226.8 308.8 226.7C318.1 226.6 329 224.4 335.4 213.3" stroke="#2A1E17" stroke-miterlimit="10" stroke-linecap="round" stroke-linejoin="round"/>
<path d="M284.8 231.4C284.8 231.4 296.3 241.6 309.2 238.4" stroke="#2A1E17" stroke-miterlimit="10" stroke-linecap="round" stroke-linejoin="round"/>
<path d="M296.9 246.7C296.9 246.7 303 251.2 311.4 246.9" stroke="#2A1E17" stroke-miterlimit="10" stroke-linecap="round" stroke-linejoin="round"/>
<path d="M269.1 253C269.1 253 283.1 266.9 305 257.7" stroke="#2A1E17" stroke-miterlimit="10" stroke-linecap="round" stroke-linejoin="round"/>
<path d="M276.7 239.4C276.7 239.4 282.4 243.5 286 244.8" stroke="#2A1E17" stroke-miterlimit="10" stroke-linecap="round" stroke-linejoin="round"/>
<path d="M319.6 184.4C319.6 184.4 332.3 188.6 333.9 205.4" stroke="#2A1E17" stroke-miterlimit="10" stroke-linecap="round" stroke-linejoin="round"/>
<path d="M326 205.2C326 205.2 331.9 214.3 321.9 223.4" stroke="#2A1E17" stroke-miterlimit="10" stroke-linecap="round" stroke-linejoin="round"/>
<path d="M251.9 268.9C251.9 268.9 283.9 296.3 307.1 264.3" stroke="#2A1E17" stroke-miterlimit="10" stroke-linecap="round" stroke-linejoin="round"/>
<path d="M20.8 164.4H28.2001" stroke="#FF6D66" stroke-miterlimit="10" stroke-linecap="round" stroke-linejoin="round"/>
<path d="M436.5 74.7H444" stroke="#FF6D66" stroke-miterlimit="10" stroke-linecap="round" stroke-linejoin="round"/>
<path d="M236.4 23.5H243.8" stroke="#FAD8B0" stroke-miterlimit="10"/>
<path d="M450.8 113.4L458.1 114.7" stroke="#FAD8B0" stroke-miterlimit="10"/>
<path d="M157.6 299.6H165.1" stroke="#A0C6F4" stroke-miterlimit="10" stroke-linecap="round" stroke-linejoin="round"/>
<path d="M466.9 209.1C468.281 209.1 469.4 207.981 469.4 206.6C469.4 205.219 468.281 204.1 466.9 204.1C465.519 204.1 464.4 205.219 464.4 206.6C464.4 207.981 465.519 209.1 466.9 209.1Z" fill="#91BA83"/>
<path d="M2.5 90.4C3.88071 90.4 5 89.2807 5 87.9C5 86.5193 3.88071 85.4 2.5 85.4C1.11929 85.4 0 86.5193 0 87.9C0 89.2807 1.11929 90.4 2.5 90.4Z" fill="#91BA83"/>
</svg>
