<svg width="300" height="46" viewBox="0 0 300 46" fill="none" xmlns="http://www.w3.org/2000/svg">
<path d="M67.2233 9.43636H61.3957V37H67.2233V9.43636ZM98.863 9.43636H93.0622V26.7713H92.82L80.9224 9.43636H75.808V37H81.6357V19.6516H81.8376L93.8294 37H98.863V9.43636ZM117.239 37C125.637 37 130.725 31.8049 130.725 23.1913C130.725 14.6045 125.637 9.43636 117.32 9.43636H107.468V37H117.239ZM113.296 32.0068V14.4296H117.01C122.178 14.4296 124.91 17.0675 124.91 23.1913C124.91 29.3419 122.178 32.0068 116.997 32.0068H113.296ZM164.161 23.2182C164.161 14.2008 158.562 9.05951 151.254 9.05951C143.906 9.05951 138.347 14.2008 138.347 23.2182C138.347 32.1952 143.906 37.3768 151.254 37.3768C158.562 37.3768 164.161 32.2356 164.161 23.2182ZM158.253 23.2182C158.253 29.0593 155.48 32.2221 151.254 32.2221C147.015 32.2221 144.255 29.0593 144.255 23.2182C144.255 17.3771 147.015 14.2142 151.254 14.2142C155.48 14.2142 158.253 17.3771 158.253 23.2182ZM195.323 9.43636H189.522V26.7713H189.28L177.382 9.43636H172.268V37H178.096V19.6516H178.298L190.289 37H195.323V9.43636ZM203.928 37H222.555V32.1952H209.755V25.6138H221.545V20.8091H209.755V14.2412H222.501V9.43636H203.928V37ZM245.877 17.3636H251.462C251.382 12.4511 247.344 9.05951 241.207 9.05951C235.164 9.05951 230.736 12.3973 230.763 17.404C230.749 21.4685 233.616 23.7969 238.273 24.914L241.274 25.6677C244.275 26.3945 245.944 27.2558 245.958 29.1131C245.944 31.132 244.033 32.5048 241.072 32.5048C238.044 32.5048 235.864 31.105 235.675 28.346H230.036C230.184 34.3082 234.45 37.3903 241.139 37.3903C247.869 37.3903 251.826 34.1737 251.839 29.1266C251.826 24.5371 248.367 22.1011 243.575 21.0244L241.099 20.4322C238.703 19.8804 236.698 18.9921 236.738 17.0137C236.738 15.2371 238.313 13.9316 241.166 13.9316C243.952 13.9316 245.662 15.1967 245.877 17.3636ZM265.377 9.43636H259.549V37H265.377V9.43636ZM278.712 37L280.758 30.7147H290.704L292.75 37H298.995L289.493 9.43636H281.983L272.467 37H278.712ZM282.239 26.1657L285.63 15.7351H285.845L289.237 26.1657H282.239Z" fill="black"/>
<rect y="9" width="38" height="14" fill="#CA3636"/>
<rect x="0.25" y="9.25" width="37.5" height="27.5" stroke="black" stroke-width="0.5"/>
</svg>
